<?xml version="1.0" encoding="UTF-8"?>
<svg version="1.1" xmlns="http://www.w3.org/2000/svg" viewBox="0 0 1024 1024">
<path d="M0 0 C337.92 0 675.84 0 1024 0 C1024 337.92 1024 675.84 1024 1024 C686.08 1024 348.16 1024 0 1024 C0 686.08 0 348.16 0 0 Z " fill="#E5E5E5" transform="translate(0,0)"/>
<path d="M0 0 C4.67675762 3.33652448 9.03963568 7.40394535 10.28515625 13.19921875 C10.53102015 19.32443672 9.37317036 26.09790692 5.23046875 30.79296875 C3.49173245 32.32714784 1.71566823 33.67753121 -0.1875 35 C-0.991875 35.61875 -1.79625 36.2375 -2.625 36.875 C-6.28041559 38.4798166 -9.21552538 38.20196481 -13.1875 38 C-13.55875 39.8253125 -13.55875 39.8253125 -13.9375 41.6875 C-16.49510136 53.07462623 -20.55096014 63.78824437 -25.125 74.5 C-25.70004929 75.85721755 -26.27499833 77.21447757 -26.84985352 78.57177734 C-36.96059101 102.36982548 -47.7800542 125.7994165 -59.1875 149 C-59.66880371 149.9792041 -60.15010742 150.9584082 -60.64599609 151.96728516 C-65.96223866 162.75372654 -71.4553396 173.42900291 -77.1875 184 C-77.72117187 184.99515625 -78.25484375 185.9903125 -78.8046875 187.015625 C-81.16420119 191.39233951 -83.58970529 195.69757599 -86.1875 199.9375 C-88.30856216 203.42301371 -90.18934727 206.95197965 -91.97265625 210.62109375 C-94.94614929 216.61246715 -98.21441514 222.37390435 -101.625 228.125 C-102.86543129 230.22996929 -104.10498418 232.33545641 -105.34375 234.44140625 C-106.29507813 236.05813232 -106.29507813 236.05813232 -107.265625 237.70751953 C-109.16891314 240.96815772 -111.04263014 244.24389325 -112.90625 247.52734375 C-119.48218556 259.09881047 -126.27407063 270.42627079 -133.62817383 281.52099609 C-138.01620618 288.15208093 -142.2110803 294.8757454 -146.3125 301.6875 C-151.12986463 309.68101596 -156.08634133 317.55667324 -161.21435547 325.35424805 C-165.5725976 331.99868361 -169.7604067 338.74060886 -173.9375 345.5 C-178.32870541 352.58897618 -182.7952355 359.38113395 -187.9375 365.9453125 C-192.0566207 371.53759095 -195.63200831 377.4886081 -199.29296875 383.38671875 C-202.15712024 387.99281034 -205.15270565 392.50497413 -208.1875 397 C-200.42759549 388.6889247 -192.92266544 380.26431978 -186.05859375 371.18359375 C-185.44113281 370.46300781 -184.82367188 369.74242187 -184.1875 369 C-183.5275 369 -182.8675 369 -182.1875 369 C-181.94128906 368.43410156 -181.69507813 367.86820313 -181.44140625 367.28515625 C-179.97213776 364.60751742 -178.20997565 362.66956388 -176.125 360.4375 C-172.86033424 356.88600258 -169.75687507 353.27196961 -166.75 349.5 C-162.94284939 344.78923249 -158.83695524 340.54625673 -154.5078125 336.31640625 C-152.5437481 334.35564835 -150.72690999 332.36761835 -148.9375 330.25 C-145.55720616 326.29022721 -141.88527995 322.6593165 -138.1875 319 C-133.97738398 314.8335404 -129.91508779 310.64714586 -126.08984375 306.12109375 C-122.90438351 302.56933829 -119.4797635 299.25119248 -116.06811523 295.91772461 C-113.24240801 293.13687673 -110.55134798 290.3016065 -107.97241211 287.28930664 C-104.2619689 283.02910038 -100.34718951 279.01501447 -96.34765625 275.02734375 C-95.25897499 273.9372274 -95.25897499 273.9372274 -94.14830017 272.8250885 C-92.62426444 271.30037704 -91.09898431 269.7769085 -89.57250977 268.25463867 C-87.25617537 265.94366109 -84.94522922 263.62739229 -82.63476562 261.31054688 C-81.14354966 259.8199918 -79.65202347 258.329747 -78.16015625 256.83984375 C-77.47969742 256.15736069 -76.79923859 255.47487762 -76.09815979 254.77171326 C-72.16025766 250.85268985 -68.11885327 247.10999283 -63.90936279 243.48374939 C-61.69213007 241.57313391 -59.53512035 239.599751 -57.375 237.625 C-52.92180193 233.59853806 -48.31958038 229.79374946 -43.6328125 226.04296875 C-41.15424436 224.04426493 -41.15424436 224.04426493 -38.9921875 221.73828125 C-37.1875 220 -37.1875 220 -35.1875 220 C-35.1875 219.34 -35.1875 218.68 -35.1875 218 C-33.5498728 216.54597658 -31.85015804 215.16151322 -30.125 213.8125 C-26.79127152 211.15401079 -23.61202894 208.54078987 -20.6875 205.4375 C-17.16328401 201.78711876 -13.16350757 198.97703907 -9.03515625 196.046875 C-3.67355906 192.19299718 1.61094484 188.20503863 6.28125 183.52734375 C8.72686018 181.08550766 11.24809844 178.91757738 13.9375 176.75 C18.12273501 173.37106348 18.12273501 173.37106348 22.26953125 169.9453125 C35.29827956 159.07092415 49.03900318 149.06929392 63.078125 139.546875 C66.7366677 137.06361545 70.34413844 134.51393874 73.9375 131.9375 C74.50847412 131.52846436 75.07944824 131.11942871 75.66772461 130.69799805 C77.96012258 129.05350122 80.25027992 127.40595059 82.53759766 125.75439453 C94.19241622 117.33939866 105.91384772 109.14146884 118.41796875 102.02734375 C122.80913366 99.4047723 127.04805639 96.5724066 131.3125 93.75 C138.98338488 88.69018591 146.80784931 84.10129472 154.91040039 79.76953125 C160.39996033 76.82683285 165.55712275 73.68425779 170.62109375 70.046875 C173.44512271 68.69778452 174.87391734 69.07770694 177.8125 70 C178.4725 70.33 179.1325 70.66 179.8125 71 C179.8125 72.98 179.8125 74.96 179.8125 77 C180.4725 76.67 181.1325 76.34 181.8125 76 C181.8125 73.03 181.8125 70.06 181.8125 67 C183.1325 66.67 184.4525 66.34 185.8125 66 C186.1425 65.01 186.4725 64.02 186.8125 63 C187.4725 63 188.1325 63 188.8125 63 C188.8125 61.68 188.8125 60.36 188.8125 59 C189.4725 59 190.1325 59 190.8125 59 C190.68875 57.2675 190.68875 57.2675 190.5625 55.5 C190.58214823 49.94937435 192.49079781 45.57604597 196.203125 41.45703125 C200.02189464 38.03018797 203.77698696 36.04447638 208.9453125 35.96875 C215.69687698 36.42648319 220.44874842 38.44459289 225.125 43.5 C229.07543415 49.35249504 229.59013643 53.98183118 228.8125 61 C227.0452388 66.96450656 223.78518107 70.43264184 218.8125 74 C215.87327067 75.46961466 213.20841028 75.20919862 209.9375 75.25 C208.70257812 75.27578125 207.46765625 75.3015625 206.1953125 75.328125 C202.52896758 74.97249801 201.60071683 74.19031896 198.8125 72 C196.52584943 71.95351457 196.52584943 71.95351457 194.25 72.625 C193.48558594 72.80289063 192.72117187 72.98078125 191.93359375 73.1640625 C189.77638297 73.84985556 189.77638297 73.84985556 188.43359375 75.390625 C186.09055017 77.71673092 183.42862369 78.73000739 180.4375 80.125 C157.31275517 91.29796966 135.20868803 105.55709609 113.9453125 119.890625 C111.53041919 121.51661301 109.1086992 123.12970845 106.6796875 124.734375 C90.45673326 135.46376737 74.69659913 146.75653222 59.06982422 158.33349609 C56.92873941 159.91418449 54.78085906 161.48493149 52.62890625 163.05078125 C47.11065142 167.06697339 41.62793352 171.09068065 36.3125 175.375 C35.52230469 176.00277344 34.73210937 176.63054687 33.91796875 177.27734375 C31.84782719 178.92561133 31.84782719 178.92561133 30.17578125 180.56640625 C25.19584049 184.96932617 19.48579876 184.64164076 13.140625 184.76171875 C9.67581836 184.73444128 9.67581836 184.73444128 6.8125 187 C10.7725 187 14.7325 187 18.8125 187 C14.6910968 193.30332254 9.80555271 197.77898543 4.07226562 202.55322266 C-0.04472719 205.98660216 -3.87853335 209.55101767 -7.5390625 213.4765625 C-9.86660998 215.62761349 -11.97476918 217 -15.1875 217 C-16.91704521 218.18561517 -16.91704521 218.18561517 -18.6875 219.75 C-19.2959375 220.26046875 -19.904375 220.7709375 -20.53125 221.296875 C-22.2766787 223.09170263 -23.09332757 224.77045199 -24.1875 227 C-25.52245569 227.92420009 -26.86570532 228.83808618 -28.2421875 229.69921875 C-36.58302624 235.27652658 -43.88471541 242.39925675 -51.19921875 249.2265625 C-53.4910841 251.36354314 -55.81508757 253.45223348 -58.1875 255.5 C-69.74985256 265.52681444 -69.74985256 265.52681444 -80.15625 276.7109375 C-85.20873746 282.40470221 -90.77308107 287.65316744 -96.1875 293 C-90.55214775 289.52576589 -85.48287932 285.65305233 -80.5 281.3125 C-71.04692498 273.09126318 -61.50996526 265.23274067 -50.81640625 258.6640625 C-48.09852337 256.94367898 -45.52370077 255.0995365 -42.9375 253.1875 C-33.26450234 246.0672906 -23.29886635 239.53889708 -12.85546875 233.60546875 C-9.60929432 231.65206071 -6.65499416 229.44525372 -3.7109375 227.06640625 C-2.1875 226 -2.1875 226 -0.1875 226 C-0.5175 225.01 -0.8475 224.02 -1.1875 223 C-2.10646895 215.5169671 0.30591731 210.93400707 4.8125 205 C8.65368734 201.0506102 11.89671435 198.85046428 17.4375 198.6875 C24.26189447 198.76628089 28.60851092 201.08348775 33.6875 205.5 C38.29842475 210.92461736 38.30390661 215.50549582 38.1875 222.51171875 C37.49279444 228.97392775 34.46175442 232.86239728 29.625 237 C25.22414842 239.83251355 20.87511886 239.53841737 15.8125 239 C14.99136719 238.8040625 14.17023438 238.608125 13.32421875 238.40625 C4.62915565 236.6118212 -0.84952474 240.62601138 -7.9140625 245.1796875 C-8.99349121 245.8927002 -8.99349121 245.8927002 -10.09472656 246.62011719 C-12.01203213 247.8843042 -13.94698532 249.10975779 -15.8984375 250.3203125 C-26.62321217 257.01138025 -36.89989062 264.35263802 -46.8203125 272.18359375 C-49.68449361 274.38135648 -52.61777185 276.47497154 -55.5625 278.5625 C-64.5258876 284.92193621 -73.36978734 291.44048205 -82.1875 298 C-82.82139648 298.46970215 -83.45529297 298.9394043 -84.10839844 299.42333984 C-90.53836473 304.20207937 -96.67454647 309.20839541 -102.52685547 314.68212891 C-106.51529978 318.41224414 -110.60966443 322.00210321 -114.75 325.5625 C-119.20668011 329.39691179 -123.61098486 333.26911231 -127.9375 337.25 C-131.36107267 340.39625824 -134.85517938 343.36385383 -138.5 346.25 C-143.71874655 350.45191341 -148.40198138 355.06654735 -153.06567383 359.86425781 C-155.92500845 362.79445731 -158.82689054 365.59375797 -161.93701172 368.25830078 C-165.99684316 371.7915834 -169.84429724 375.4955503 -173.65234375 379.296875 C-174.32995255 379.9711554 -175.00756134 380.64543579 -175.70570374 381.34014893 C-177.12794061 382.75736074 -178.54886019 384.17589567 -179.96850586 385.59570312 C-182.11096492 387.73597922 -184.2612999 389.86811981 -186.41210938 392 C-193.80213383 399.35988818 -200.78707253 406.75163091 -207.1875 415 C-208.10880423 416.12866932 -209.03383367 417.25432335 -209.96484375 418.375 C-210.67769531 419.24125 -211.39054688 420.1075 -212.125 421 C-212.85589844 421.886875 -213.58679688 422.77375 -214.33984375 423.6875 C-216.28895442 426.05900021 -216.28895442 426.05900021 -218.1875 429 C-217.300625 428.05125 -216.41375 427.1025 -215.5 426.125 C-210.75431744 421.38878986 -205.42488627 417.44523923 -200.07666016 413.42724609 C-198.10742219 411.93950183 -196.15203303 410.43500955 -194.19921875 408.92578125 C-184.74255344 401.62507996 -175.13637446 394.56175327 -165.42285156 387.60742188 C-163.25073406 386.04547107 -161.08862746 384.47072596 -158.9296875 382.890625 C-147.31599553 374.40461493 -135.46504754 366.2899742 -123.53320312 358.25878906 C-120.70591886 356.35342731 -117.88950909 354.43256604 -115.07522583 352.5080719 C-101.66367435 343.34635425 -88.10961401 334.85702905 -73.69824219 327.32617188 C-69.67731685 325.20232255 -65.71630823 322.9736398 -61.75 320.75 C-59.5939774 319.5526076 -57.43667834 318.35753952 -55.27929688 317.16259766 C-53.87492189 316.38206151 -52.47259717 315.5978259 -51.07226562 314.81005859 C-49.05366448 313.67565762 -47.02783534 312.55528861 -45 311.4375 C-43.85144531 310.79683594 -42.70289063 310.15617187 -41.51953125 309.49609375 C-38.01180379 307.92111179 -35.00018727 307.3536546 -31.1875 307 C-30.5275 310.63 -29.8675 314.26 -29.1875 318 C-30.60417969 318.72703125 -32.02085937 319.4540625 -33.48046875 320.203125 C-46.05468865 326.68963549 -58.43528293 333.42912249 -70.66748047 340.53857422 C-73.15993769 341.98401589 -75.65892348 343.41746291 -78.16015625 344.84765625 C-92.50844142 353.06843203 -106.47405882 361.75751636 -120.1875 371 C-121.14914062 371.63421875 -122.11078125 372.2684375 -123.1015625 372.921875 C-129.06281368 376.85409874 -134.91295837 380.9095337 -140.70361328 385.08642578 C-144.4136926 387.75578701 -148.16467875 390.35123132 -151.953125 392.90795898 C-159.25120761 397.84368243 -166.25834257 403.06105676 -173.17675781 408.51538086 C-178.93787848 413.05371541 -184.79518356 417.44635772 -190.6875 421.8125 C-196.76035353 426.32642619 -202.56992386 430.893462 -208.0859375 436.078125 C-210.98114966 438.72579114 -214.08645226 441.057576 -217.2109375 443.42578125 C-218.98819876 444.84126799 -220.55560452 446.29927139 -222.125 447.9375 C-222.805625 448.618125 -223.48625 449.29875 -224.1875 450 C-224.8475 450 -225.5075 450 -226.1875 450 C-226.1875 450.66 -226.1875 451.32 -226.1875 452 C-227.953125 453.62890625 -227.953125 453.62890625 -230.4375 455.5625 C-231.345 456.27277344 -232.2525 456.98304688 -233.1875 457.71484375 C-236.24990589 460.04753573 -239.34117226 462.33758788 -242.4375 464.625 C-245.78603797 467.10842726 -248.91719111 469.56126518 -251.8125 472.5625 C-252.988125 473.7690625 -252.988125 473.7690625 -254.1875 475 C-254.8475 475 -255.5075 475 -256.1875 475 C-256.5278125 475.8353125 -256.5278125 475.8353125 -256.875 476.6875 C-259.22006141 480.81927486 -262.79873948 483.71351304 -266.4375 486.6875 C-269.20492194 488.7042322 -269.20492194 488.7042322 -270.1875 491 C-269.60226562 490.57332031 -269.01703125 490.14664062 -268.4140625 489.70703125 C-259.3574908 483.11178009 -250.28564526 476.53779582 -241.1875 470 C-240.46191895 469.47825195 -239.73633789 468.95650391 -238.98876953 468.41894531 C-186.77379794 430.95753126 -129.01759277 400.16109625 -67.62158203 380.77148438 C-65.88863964 380.22222681 -64.15808066 379.66542505 -62.42919922 379.10351562 C-24.18188528 366.6799111 14.52238759 359.97146861 54.359375 355.015625 C55.06554962 354.92731918 55.77172424 354.83901337 56.4992981 354.74803162 C58.60270863 354.48954292 60.7074223 354.24450149 62.8125 354 C63.90097733 353.86109848 63.90097733 353.86109848 65.01144409 353.71939087 C72.82010265 352.80719615 80.62739005 352.85471282 88.4765625 352.8671875 C89.99661271 352.86651125 91.5166628 352.86553858 93.03671265 352.86428833 C96.21882154 352.86282017 99.40090223 352.86493322 102.58300781 352.86962891 C106.58546202 352.87525838 110.5878488 352.87198318 114.59030056 352.86619854 C160.7072547 352.80925969 160.7072547 352.80925969 181.5 355.4375 C183.79017088 355.71126079 186.08053843 355.98338098 188.37109375 356.25390625 C190.01440674 356.44944092 190.01440674 356.44944092 191.69091797 356.64892578 C195.32219804 357.05732409 198.95516886 357.37255648 202.59716797 357.66674805 C205.99446625 357.95372521 209.38190744 358.31491324 212.77099609 358.68554688 C215.02424064 358.91850393 217.28037076 359.12390992 219.53759766 359.31445312 C244.89872394 361.48913322 244.89872394 361.48913322 250.8984375 367.1484375 C253.53274173 370.3482867 255.46072035 373.87526854 257.38525391 377.53320312 C260.2314554 382.45246757 263.9246798 386.79603239 267.4375 391.25 C268.81029314 393.02171235 270.17786432 394.79748883 271.5390625 396.578125 C272.12252441 397.33512695 272.70598633 398.09212891 273.30712891 398.87207031 C274.70954683 400.8544697 275.79680103 402.79900714 276.8125 405 C269.94107142 404.37211792 263.40516758 403.1123418 256.6875 401.5625 C248.98883905 399.83579507 241.3984135 398.34703009 233.5546875 397.45703125 C226.94057808 396.64925379 220.36372304 395.57324922 213.78613281 394.51147461 C160.93816739 386.01276207 103.9539568 383.64415606 50.8125 391 C50.04905273 391.10417236 49.28560547 391.20834473 48.49902344 391.31567383 C18.82757988 395.38525657 -10.39860854 400.62279566 -39.1875 409 C-40.17588867 409.28681641 -41.16427734 409.57363281 -42.18261719 409.86914062 C-71.8068647 418.60361094 -100.44919252 430.49026363 -128.1875 444 C-129.65098877 444.70503662 -129.65098877 444.70503662 -131.14404297 445.42431641 C-174.25950577 466.23282345 -214.54148055 492.63688986 -251.22705078 523.35986328 C-253.01979653 524.85969715 -254.8192801 526.35092939 -256.62109375 527.83984375 C-270.63704523 539.48306774 -283.60366883 552.2488842 -296.4609375 565.14306641 C-298.70978794 567.39734171 -300.96402448 569.64613376 -303.21875 571.89453125 C-304.67740452 573.3538457 -306.13574927 574.81346985 -307.59375 576.2734375 C-308.25427368 576.93193695 -308.91479736 577.5904364 -309.59533691 578.26889038 C-313.99020968 582.68569127 -318.1274229 587.27512975 -322.1875 592 C-323.13683545 593.08307142 -324.08714658 594.16528963 -325.0390625 595.24609375 C-332.22842337 603.48833819 -338.96380039 612.01648082 -345.51660156 620.77148438 C-347.17627675 622.98503129 -348.84941746 625.18791561 -350.5234375 627.390625 C-369.79967379 652.94987686 -386.22060365 680.40532422 -401.72216797 708.36865234 C-403.51839222 711.59419466 -405.3455684 714.80037926 -407.1875 718 C-413.45194641 713.52539542 -419.22004519 708.57556435 -424.99438477 703.49536133 C-425.62143311 702.94517334 -426.24848145 702.39498535 -426.89453125 701.828125 C-427.4563208 701.3321582 -428.01811035 700.83619141 -428.59692383 700.32519531 C-430.36208748 698.80674366 -430.36208748 698.80674366 -433.1875 697 C-432.58566107 692.92971705 -431.26086574 689.92971039 -429.265625 686.34375 C-428.65871826 685.24901367 -428.05181152 684.15427734 -427.42651367 683.02636719 C-426.7641062 681.85057488 -426.1010875 680.67512674 -425.4375 679.5 C-425.10247467 678.90207642 -424.76744934 678.30415283 -424.42227173 677.68811035 C-413.08016016 657.44987459 -400.65763893 637.88945981 -387.1875 619 C-386.74067871 618.36755371 -386.29385742 617.73510742 -385.83349609 617.08349609 C-378.46943251 606.66993352 -370.81089972 596.59913467 -362.66699219 586.78369141 C-360.45373668 584.11536719 -358.25836636 581.43265226 -356.0625 578.75 C-355.37929688 577.91984375 -354.69609375 577.0896875 -353.9921875 576.234375 C-351.3888132 573.01114967 -349.05947291 570.11155196 -347.5 566.25 C-347.066875 565.1775 -346.63375 564.105 -346.1875 563 C-345.5275 563 -344.8675 563 -344.1875 563 C-344.09339844 562.48566406 -343.99929688 561.97132813 -343.90234375 561.44140625 C-342.9163404 558.07390849 -341.33673176 555.05208238 -339.75 551.9375 C-339.40018066 551.23995605 -339.05036133 550.54241211 -338.68994141 549.82373047 C-336.74105286 545.96262831 -334.73189763 542.14353456 -332.64453125 538.35546875 C-327.31582796 528.63812492 -323.20269375 519.17646175 -319.98535156 508.57958984 C-318.38388569 503.4017782 -316.64981969 498.26696136 -314.9375 493.125 C-314.5957373 492.08384033 -314.25397461 491.04268066 -313.90185547 489.9699707 C-313.57846191 488.9924585 -313.25506836 488.01494629 -312.921875 487.0078125 C-312.63538086 486.13785645 -312.34888672 485.26790039 -312.05371094 484.37158203 C-311.1875 482 -311.1875 482 -310.12353516 479.90161133 C-308.67233601 476.95341358 -308.33152994 473.77863194 -307.8125 470.5625 C-306.99139683 465.58147051 -305.89209543 461.075838 -304.25390625 456.30078125 C-301.30693167 446.9666655 -300.54142673 437.32104195 -299.5 427.625 C-299.28697256 425.71992142 -299.0727872 423.81497195 -298.85742188 421.91015625 C-298.55428646 419.22825492 -298.25268126 416.54631032 -297.96052551 413.8631897 C-297.58639424 410.43448558 -297.19410345 407.04017756 -296.63452148 403.63549805 C-296.01037074 398.55945828 -296.00479527 393.52794785 -295.984375 388.41796875 C-295.97867493 387.29095047 -295.97297485 386.16393219 -295.96710205 385.00276184 C-295.95767053 382.61146983 -295.95112543 380.22016492 -295.94726562 377.82885742 C-295.93770841 374.26521089 -295.90673071 370.70217954 -295.875 367.13867188 C-295.75355968 340.75750892 -298.919095 316.30521501 -307.25708008 291.29125977 C-307.5073999 290.52998779 -307.75771973 289.76871582 -308.015625 288.984375 C-308.2415332 288.31116211 -308.46744141 287.63794922 -308.70019531 286.94433594 C-309.1875 285 -309.1875 285 -309.1875 281 C-308.5275 280.67 -307.8675 280.34 -307.1875 280 C-306.8575 279.01 -306.5275 278.02 -306.1875 277 C-307.8375 277 -309.4875 277 -311.1875 277 C-312.50376692 273.38026598 -313.1875 270.90432869 -313.1875 267 C-314.486875 267.12375 -315.78625 267.2475 -317.125 267.375 C-323.05866352 267.35628182 -326.91352961 264.9833404 -331.1875 261 C-335.33059951 255.98818608 -335.93217961 250.32686442 -335.69921875 243.97265625 C-334.72705558 238.32520458 -331.88706262 234.01209636 -327.30078125 230.59375 C-325.4375 229.5 -325.4375 229.5 -322.1875 228 C-321.5275 227.67 -320.8675 227.34 -320.1875 227 C-312.84244005 226.51032934 -308.98358818 227.91664018 -303 232.375 C-299.44440557 235.6935548 -297.44022763 238.20130788 -296.75390625 243.0859375 C-296.74208022 253.04345589 -296.74208022 253.04345589 -299.25 256.875 C-301.47950418 259.83890011 -301.47950418 259.83890011 -301.125 263.1875 C-300.815625 264.445625 -300.50625 265.70375 -300.1875 267 C-299.99800781 267.84046875 -299.80851563 268.6809375 -299.61328125 269.546875 C-298.30640419 275.13698496 -296.6863844 280.55419801 -294.875 286 C-290.9429503 298.04938948 -288.66604933 310.58843369 -286.1875 323 C-285.99462402 323.92731934 -285.80174805 324.85463867 -285.60302734 325.81005859 C-282.44269093 341.76931977 -282.91061045 358.17713604 -282.875 374.375 C-282.87171692 375.59499695 -282.86843384 376.8149939 -282.86505127 378.07196045 C-282.84923183 396.2568528 -283.61986486 413.90550859 -286.65551758 431.84545898 C-287.21544563 435.16571154 -287.70438831 438.49255701 -288.19140625 441.82421875 C-288.94294718 446.72402889 -289.92646759 451.41171195 -291.25 456.1875 C-291.59160156 457.43917969 -291.93320312 458.69085937 -292.28515625 459.98046875 C-293.1875 463 -293.1875 463 -294.1875 465 C-293.5275 465 -292.8675 465 -292.1875 465 C-291.8471875 463.824375 -291.8471875 463.824375 -291.5 462.625 C-290.41064618 459.6163085 -289.20321856 456.96140249 -287.75 454.125 C-286.21234448 451.12141633 -284.8141461 448.180361 -283.6875 445 C-282.63603257 442.03356953 -281.351287 439.34166886 -279.875 436.5625 C-277.06091094 431.12192782 -275.14458184 425.43325446 -273.24291992 419.62524414 C-271.39392178 414.10321089 -271.39392178 414.10321089 -269.1875 413 C-268.28024566 410.88672575 -268.28024566 410.88672575 -267.5625 408.4375 C-267.30210937 407.61121094 -267.04171875 406.78492188 -266.7734375 405.93359375 C-266.58007812 405.29550781 -266.38671875 404.65742187 -266.1875 404 C-265.5275 404 -264.8675 404 -264.1875 404 C-264.001875 402.7934375 -264.001875 402.7934375 -263.8125 401.5625 C-263.33136136 398.82000975 -262.82185112 396.09917265 -262.25 393.375 C-262.09660156 392.64023437 -261.94320312 391.90546875 -261.78515625 391.1484375 C-261.16437606 388.91687473 -260.28696271 387.03331598 -259.1875 385 C-258.5275 385 -257.8675 385 -257.1875 385 C-256.8575 382.69 -256.5275 380.38 -256.1875 378 C-255.5275 378 -254.8675 378 -254.1875 378 C-253.63260799 375.24628356 -253.09210909 372.491451 -252.57421875 369.73046875 C-251.36934885 363.62534585 -250.15015908 358.28522578 -247.09375 352.85546875 C-245.7388057 350.08133711 -245.26614984 347.22555969 -244.6796875 344.2109375 C-244.20340326 342.07143847 -243.55583642 340.16036003 -242.75 338.125 C-238.83710261 328.09697152 -237.05458832 317.55368365 -235.1875 307 C-234.5275 307 -233.8675 307 -233.1875 307 C-233.06632813 305.84242188 -232.94515625 304.68484375 -232.8203125 303.4921875 C-232.65138684 301.95308708 -232.48209668 300.41402663 -232.3125 298.875 C-232.23386719 298.11445313 -232.15523437 297.35390625 -232.07421875 296.5703125 C-231.57776335 292.14040279 -230.78349921 288.19788029 -229.1875 284 C-228.5275 284 -227.8675 284 -227.1875 284 C-227.21070313 283.0821875 -227.23390625 282.164375 -227.2578125 281.21875 C-227.27585937 279.9915625 -227.29390625 278.764375 -227.3125 277.5 C-227.33570313 276.2934375 -227.35890625 275.086875 -227.3828125 273.84375 C-227.1875 270 -227.1875 270 -226.25366211 266.46142578 C-224.91410622 261.28872267 -224.4385047 256.08254415 -223.93359375 250.7734375 C-223.82781509 249.70815826 -223.72203644 248.64287903 -223.61305237 247.5453186 C-223.3910219 245.29822693 -223.1718312 243.05085305 -222.95532227 240.80322266 C-222.62798216 237.40595007 -222.2923431 234.00958146 -221.95507812 230.61328125 C-221.73909355 228.41671477 -221.52358381 226.22010154 -221.30859375 224.0234375 C-221.1616935 222.5289357 -221.1616935 222.5289357 -221.01182556 221.00424194 C-219.77751733 208.15423181 -219.03285826 195.42452839 -219.0546875 182.51171875 C-219.05401123 181.07355228 -219.05303854 179.63538593 -219.05178833 178.19721985 C-219.05032889 175.21146536 -219.05241024 172.22574115 -219.05712891 169.23999023 C-219.06285125 165.43657136 -219.05952022 161.6332227 -219.05355644 157.82980633 C-219.04992521 154.87078837 -219.0511007 151.9117868 -219.05368423 148.95276833 C-219.05434508 147.55070805 -219.05355501 146.14864622 -219.05120468 144.74658775 C-218.43384799 132.5799093 -218.43384799 132.5799093 -221.1875 121 C-223.04375 120.3503125 -223.04375 120.3503125 -224.9375 119.6875 C-230.10701016 117.83794359 -232.80200847 114.91102279 -236 110.5 C-238.11565248 104.2643927 -238.60121433 97.53687504 -236.12109375 91.33203125 C-232.93097633 86.14265768 -228.90196779 82.24265906 -223.1875 80 C-217.9784974 78.86496441 -213.67004115 80.11500668 -209.078125 82.6640625 C-204.50955138 85.89226948 -200.47026178 90.48412434 -199.1875 96 C-198.37756733 102.39070164 -198.91797996 106.92998315 -202.67578125 112.23828125 C-204.94655346 114.88458168 -207.39119064 116.91902559 -210.1875 119 C-209.72657959 120.36608398 -209.72657959 120.36608398 -209.25634766 121.75976562 C-207.75945245 127.03081611 -207.47307425 132.39841464 -207.0859375 137.84375 C-207.00225922 138.98759155 -206.91858093 140.13143311 -206.83236694 141.30993652 C-206.00753109 153.37307041 -205.79329962 165.41195443 -205.8125 177.5 C-205.81204681 178.62955109 -205.81159363 179.75910217 -205.81112671 180.92288208 C-205.83618312 202.44030747 -207.32559337 223.62338349 -209.9407959 244.97106934 C-210.29039244 247.84620248 -210.61508768 250.72414896 -210.9453125 253.6015625 C-214.2135327 280.68510037 -220.82800773 307.41491832 -228.36206055 333.59472656 C-229.12833845 336.26161887 -229.88388043 338.93139941 -230.63867188 341.6015625 C-233.76040462 352.55873812 -237.26404072 363.30486635 -241.1875 374 C-241.52241455 374.92828613 -241.8573291 375.85657227 -242.20239258 376.81298828 C-244.1565901 382.22366919 -246.1684341 387.6132428 -248.1875 393 C-248.4777002 393.77553223 -248.76790039 394.55106445 -249.06689453 395.35009766 C-252.21038229 403.70991463 -255.50230452 411.92176211 -259.3581543 419.98120117 C-262.5026503 426.57577655 -265.37297205 433.2845606 -268.26245117 439.99389648 C-271.75852576 448.08385974 -275.39987396 456.10214738 -279.13989258 464.08227539 C-279.53974365 464.94715576 -279.93959473 465.81203613 -280.3515625 466.703125 C-280.70686035 467.46270508 -281.0621582 468.22228516 -281.42822266 469.00488281 C-282.36534071 471.11151832 -282.36534071 471.11151832 -282.1875 474 C-276.19403503 466.50247158 -270.33961615 458.94865527 -264.81225586 451.09960938 C-262.24523179 447.45890003 -259.5958088 443.90362635 -256.875 440.375 C-252.03363561 434.00661028 -247.77355287 427.27809559 -243.52807617 420.50146484 C-242.9941626 419.6605127 -242.46024902 418.81956055 -241.91015625 417.953125 C-241.43328369 417.19161133 -240.95641113 416.43009766 -240.46508789 415.64550781 C-239.83268188 414.83098145 -239.83268188 414.83098145 -239.1875 414 C-238.5275 414 -237.8675 414 -237.1875 414 C-236.96449219 413.34 -236.74148438 412.68 -236.51171875 412 C-234.75909859 408.02946228 -232.40833297 404.59978152 -230 401 C-225.94586326 394.84725906 -222.28491903 388.66966457 -218.875 382.13671875 C-215.31916076 375.52713795 -211.33668332 369.12209747 -207.08203125 362.94140625 C-205.36089224 360.26920486 -204.16879395 357.84061152 -203.0625 354.875 C-201.9109872 351.82016026 -200.69604058 348.89693192 -199.1875 346 C-198.5275 346 -197.8675 346 -197.1875 346 C-196.93355469 345.00355469 -196.67960938 344.00710938 -196.41796875 342.98046875 C-195.23105152 338.83926148 -193.46192952 335.13610762 -191.5 331.3125 C-191.1484082 330.61624512 -190.79681641 329.91999023 -190.43457031 329.20263672 C-188.24619025 324.91730487 -185.91085366 320.75437879 -183.4375 316.625 C-180.89060178 312.35520005 -178.88946905 308.15221539 -177.15234375 303.5 C-176.09128293 300.75069261 -174.87415006 298.10630726 -173.625 295.4375 C-171.79653403 291.46281635 -170.26186697 287.51674541 -168.9453125 283.34765625 C-167.49409884 278.85188609 -165.81969729 274.43261701 -164.1875 270 C-163.5275 270 -162.8675 270 -162.1875 270 C-162.06375 269.360625 -161.94 268.72125 -161.8125 268.0625 C-161.503125 266.5465625 -161.503125 266.5465625 -161.1875 265 C-161.06503906 264.34515625 -160.94257813 263.6903125 -160.81640625 263.015625 C-159.61744051 257.03140661 -157.59549924 251.59918269 -155.1875 246 C-154.5275 246 -153.8675 246 -153.1875 246 C-153.08953125 245.24976563 -152.9915625 244.49953125 -152.890625 243.7265625 C-151.66984027 235.37050148 -149.44819232 228.2701966 -145.5 220.8125 C-143.96688503 217.52725363 -143.64340747 214.58213014 -143.1875 211 C-142.125 208.0625 -142.125 208.0625 -141.1875 206 C-141.80238281 205.32904297 -141.80238281 205.32904297 -142.4296875 204.64453125 C-142.96851563 204.03996094 -143.50734375 203.43539062 -144.0625 202.8125 C-144.59617187 202.22082031 -145.12984375 201.62914062 -145.6796875 201.01953125 C-149.21483181 196.2846359 -149.74176002 191.62190534 -149.6328125 185.85546875 C-148.6772032 179.72783368 -144.88801767 175.74303061 -140.6875 171.4375 C-134.24423412 168.79115866 -126.96442704 168.54036952 -120.41796875 171.0703125 C-115.1830024 174.24775476 -111.84200789 178.06771842 -110.1875 184 C-109.00940388 190.26429957 -110.53507723 195.24006278 -113.56640625 200.76171875 C-116.88807077 205.34801699 -120.94304549 207.57158671 -126.44140625 208.62109375 C-127.34761719 208.74613281 -128.25382812 208.87117187 -129.1875 209 C-130.25341642 212.31141005 -131.31489331 215.62422566 -132.375 218.9375 C-132.69815186 219.94514404 -133.02130371 220.95278809 -133.35424805 221.9909668 C-134.98022688 227.09130775 -136.54424347 232.19304949 -137.95898438 237.35571289 C-141.03311678 248.47447247 -145.46248868 259.03079304 -149.83935547 269.68896484 C-151.19957497 273.02965605 -152.52846959 276.38119208 -153.84765625 279.73828125 C-154.28182861 280.83978516 -154.71600098 281.94128906 -155.16333008 283.07617188 C-155.98302279 285.15815052 -156.7995286 287.24138818 -157.61206055 289.32617188 C-160.08920685 295.57959011 -162.900739 301.54374089 -166.04199219 307.49291992 C-167.39529196 309.99538051 -167.39529196 309.99538051 -167.1875 313 C-166.59324219 311.89785156 -165.99898438 310.79570312 -165.38671875 309.66015625 C-160.97552354 301.55526024 -156.43350043 293.57335319 -151.4375 285.8125 C-151.00268311 285.13131104 -150.56786621 284.45012207 -150.11987305 283.74829102 C-147.95182685 280.42717696 -145.70541118 277.39540788 -143.046875 274.44921875 C-140.20423217 271.21933442 -138.79332979 268.01244473 -137.1875 264 C-135.41953746 260.65881966 -133.52101356 257.39484929 -131.625 254.125 C-131.09559814 253.20678467 -130.56619629 252.28856934 -130.02075195 251.3425293 C-128.93580676 249.46365835 -127.84881685 247.5859666 -126.75976562 245.70947266 C-125.30874125 243.20893406 -123.86482223 240.70442299 -122.421875 238.19921875 C-117.36616871 229.46342413 -112.13914313 221.03733348 -105.8984375 213.08203125 C-100.25283986 205.82734633 -96.62419495 199.36366116 -94.25 190.5 C-92.78978279 185.68987271 -90.4975642 181.45109932 -88.1875 177 C-87.08020797 174.79323212 -85.97604204 172.58489289 -84.875 170.375 C-83.97916667 168.58333333 -83.08333333 166.79166667 -82.1875 165 C-81.5275 165 -80.8675 165 -80.1875 165 C-79.80464844 163.51306641 -79.80464844 163.51306641 -79.4140625 161.99609375 C-78.2164075 157.80430124 -76.45405295 153.98016759 -74.5625 150.0625 C-74.07523438 149.03672852 -74.07523438 149.03672852 -73.578125 147.99023438 C-72.78604406 146.32453475 -71.9874526 144.6619336 -71.1875 143 C-70.5275 143 -69.8675 143 -69.1875 143 C-69.105 142.16726563 -69.0225 141.33453125 -68.9375 140.4765625 C-68.02887809 136.26472136 -66.30422356 133.09036792 -64.1875 129.375 C-61.09588124 123.93087456 -61.09588124 123.93087456 -59.1875 118 C-58.5275 118 -57.8675 118 -57.1875 118 C-57.09082031 117.14921875 -56.99414062 116.2984375 -56.89453125 115.421875 C-56.10020702 111.57752125 -54.70654407 108.71699134 -52.875 105.25 C-50.31834573 100.32390642 -48.05599473 95.38751787 -46.07421875 90.203125 C-45.25888849 88.17737053 -44.33803489 86.30049408 -43.3125 84.375 C-41.32011427 80.5220206 -39.85495556 76.50677461 -38.375 72.4375 C-35.87034312 65.56843618 -32.96737409 58.99031277 -29.80078125 52.40234375 C-25.07850436 43.10593285 -25.07850436 43.10593285 -23.1875 33 C-24.42004368 31.378232 -25.66113442 29.7601517 -26.98828125 28.21484375 C-29.67204055 23.25819383 -29.03286695 16.40451834 -28.1875 11 C-25.05131012 5.42234584 -21.43860434 1.84522138 -15.875 -1.3125 C-10.18631132 -2.76774594 -5.21436072 -2.96679144 0 0 Z " fill="#70C8C3" transform="translate(607.1875,190)"/>
<path d="M0 0 C1.52005021 -0.00067625 3.0401003 -0.00164892 4.56015015 -0.00289917 C7.74225904 -0.00436733 10.92433973 -0.00225428 14.10644531 0.00244141 C18.10889952 0.00807088 22.1112863 0.00479568 26.11373806 -0.00098896 C72.2306922 -0.05792781 72.2306922 -0.05792781 93.0234375 2.5703125 C95.31360838 2.84407329 97.60397593 3.11619348 99.89453125 3.38671875 C100.99007324 3.5170752 102.08561523 3.64743164 103.21435547 3.78173828 C106.84563554 4.19013659 110.47860636 4.50536898 114.12060547 4.79956055 C117.51790375 5.08653771 120.90534494 5.44772574 124.29443359 5.81835938 C126.54767814 6.05131643 128.80380826 6.25672242 131.06103516 6.44726562 C156.42216144 8.62194572 156.42216144 8.62194572 162.421875 14.28125 C165.05617923 17.4810992 166.98415785 21.00808104 168.90869141 24.66601562 C171.7548929 29.58528007 175.4481173 33.92884489 178.9609375 38.3828125 C180.33373064 40.15452485 181.70130182 41.93030133 183.0625 43.7109375 C183.64596191 44.46793945 184.22942383 45.22494141 184.83056641 46.00488281 C186.23298433 47.9872822 187.32023853 49.93181964 188.3359375 52.1328125 C181.46450892 51.50493042 174.92860508 50.2451543 168.2109375 48.6953125 C160.51227655 46.96860757 152.921851 45.47984259 145.078125 44.58984375 C138.46401558 43.78206629 131.88716054 42.70606172 125.30957031 41.64428711 C72.46160489 33.14557457 15.4773943 30.77696856 -37.6640625 38.1328125 C-38.42750977 38.23698486 -39.19095703 38.34115723 -39.97753906 38.44848633 C-69.64898262 42.51806907 -98.87517104 47.75560816 -127.6640625 56.1328125 C-129.14664551 56.56303711 -129.14664551 56.56303711 -130.65917969 57.00195312 C-160.2834272 65.73642344 -188.92575502 77.62307613 -216.6640625 91.1328125 C-217.63972168 91.60283691 -218.61538086 92.07286133 -219.62060547 92.55712891 C-262.73606827 113.36563595 -303.01804305 139.76970236 -339.70361328 170.49267578 C-341.49635903 171.99250965 -343.2958426 173.48374189 -345.09765625 174.97265625 C-359.11360773 186.61588024 -372.08023133 199.3816967 -384.9375 212.27587891 C-387.18635044 214.53015421 -389.44058698 216.77894626 -391.6953125 219.02734375 C-393.15396702 220.4866582 -394.61231177 221.94628235 -396.0703125 223.40625 C-397.06109802 224.39399918 -397.06109802 224.39399918 -398.07189941 225.40170288 C-402.46677218 229.81850377 -406.6039854 234.40794225 -410.6640625 239.1328125 C-411.61339795 240.21588392 -412.56370908 241.29810213 -413.515625 242.37890625 C-420.70498587 250.62115069 -427.44036289 259.14929332 -433.99316406 267.90429688 C-435.65283925 270.11784379 -437.32597996 272.32072811 -439 274.5234375 C-458.27623629 300.08268936 -474.69716615 327.53813672 -490.19873047 355.50146484 C-491.99495472 358.72700716 -493.8221309 361.93319176 -495.6640625 365.1328125 C-501.92850891 360.65820792 -507.69660769 355.70837685 -513.47094727 350.62817383 C-514.09799561 350.07798584 -514.72504395 349.52779785 -515.37109375 348.9609375 C-515.9328833 348.4649707 -516.49467285 347.96900391 -517.07348633 347.45800781 C-518.83864998 345.93955616 -518.83864998 345.93955616 -521.6640625 344.1328125 C-521.06222357 340.06252955 -519.73742824 337.06252289 -517.7421875 333.4765625 C-517.13528076 332.38182617 -516.52837402 331.28708984 -515.90307617 330.15917969 C-515.2406687 328.98338738 -514.57765 327.80793924 -513.9140625 326.6328125 C-513.41152451 325.73592712 -513.41152451 325.73592712 -512.89883423 324.82092285 C-501.55672266 304.58268709 -489.13420143 285.02227231 -475.6640625 266.1328125 C-475.21724121 265.50036621 -474.77041992 264.86791992 -474.31005859 264.21630859 C-466.4963642 253.16692063 -458.30735643 242.54333336 -449.6640625 232.1328125 C-448.01502509 230.13541219 -446.37035122 228.13454516 -444.7265625 226.1328125 C-444.0253125 225.28074219 -443.3240625 224.42867187 -442.6015625 223.55078125 C-440.24368411 220.60818704 -438.02462409 217.57987869 -435.85546875 214.49609375 C-435.46230469 214.04621094 -435.06914062 213.59632813 -434.6640625 213.1328125 C-434.0040625 213.1328125 -433.3440625 213.1328125 -432.6640625 213.1328125 C-432.4477417 212.60945312 -432.2314209 212.08609375 -432.00854492 211.546875 C-430.13471845 208.1823578 -427.67344346 205.39539101 -425.15234375 202.5078125 C-424.58421463 201.85538574 -424.01608551 201.20295898 -423.43074036 200.53076172 C-416.65827644 192.85707138 -409.43331848 185.63692432 -402.16918945 178.43212891 C-399.83151769 176.11292606 -397.5021602 173.78560695 -395.17382812 171.45703125 C-393.66453624 169.95264957 -392.15478705 168.44872651 -390.64453125 166.9453125 C-389.96102097 166.26291504 -389.27751068 165.58051758 -388.57328796 164.87744141 C-384.09157076 160.43916745 -379.45409463 156.23536669 -374.6640625 152.1328125 C-374.13261124 151.67372498 -373.60115997 151.21463745 -373.05360413 150.74163818 C-359.85570266 139.36780896 -346.12350321 128.85783086 -331.93554688 118.75146484 C-329.73229053 117.18143157 -327.53394181 115.6047174 -325.3359375 114.02734375 C-273.79953491 77.18515574 -216.60444243 47.01292654 -156.09814453 27.90429688 C-154.36520214 27.35503931 -152.63464316 26.79823755 -150.90576172 26.23632812 C-112.65844778 13.8127236 -73.95417491 7.10428111 -34.1171875 2.1484375 C-33.41101288 2.06013168 -32.70483826 1.97182587 -31.9772644 1.88084412 C-29.87385387 1.62235542 -27.7691402 1.37731399 -25.6640625 1.1328125 C-24.57558517 0.99391098 -24.57558517 0.99391098 -23.46511841 0.85220337 C-15.65645985 -0.05999135 -7.84917245 -0.01247468 0 0 Z " fill="#0D0D0D" transform="translate(695.6640625,542.8671875)"/>
</svg>
